<?xml version="1.0" standalone="no"?>
<!DOCTYPE svg PUBLIC "-//W3C//DTD SVG 20010904//EN"
 "http://www.w3.org/TR/2001/REC-SVG-20010904/DTD/svg10.dtd">
<svg version="1.0" xmlns="http://www.w3.org/2000/svg"
 width="847.000000pt" height="245.000000pt" viewBox="0 0 847.000000 245.000000"
 preserveAspectRatio="xMidYMid meet">

<g transform="translate(0.000000,245.000000) scale(0.100000,-0.100000)"
fill="#000000" stroke="none">
<path d="M772 1563 l3 -28 145 0 145 0 0 25 0 25 -148 3 -148 3 3 -28z"/>
<path d="M1454 1575 c-16 -40 -1 -45 144 -45 145 0 170 7 156 44 -5 14 -26 16
-150 16 -119 0 -146 -3 -150 -15z"/>
<path d="M2134 1575 c-4 -8 -4 -22 0 -30 5 -13 38 -15 243 -13 l238 3 3 28 3
27 -241 0 c-205 0 -241 -2 -246 -15z"/>
<path d="M3004 1575 c-4 -8 -4 -22 0 -30 5 -13 66 -15 493 -13 l488 3 0 25 0
25 -488 3 c-427 2 -488 0 -493 -13z"/>
<path d="M4366 1574 c-16 -41 5 -44 253 -42 l236 3 0 25 0 25 -241 3 c-217 2
-242 1 -248 -14z"/>
<path d="M5236 1574 c-15 -39 9 -45 188 -42 l171 3 3 28 3 27 -179 0 c-157 0
-181 -2 -186 -16z"/>
<path d="M5794 1575 c-4 -8 -1 -22 6 -30 10 -12 47 -15 210 -15 206 0 229 5
214 44 -5 14 -31 16 -215 16 -178 0 -211 -2 -215 -15z"/>
<path d="M6544 1575 c-4 -8 -4 -22 0 -30 5 -13 38 -15 243 -13 l238 3 0 25 0
25 -238 3 c-205 2 -238 0 -243 -13z"/>
<path d="M777 1463 c-4 -3 -7 -17 -7 -30 l0 -23 210 0 c179 0 212 2 216 15 4
8 1 22 -6 30 -10 12 -47 15 -210 15 -108 0 -200 -3 -203 -7z"/>
<path d="M1330 1455 c-7 -8 -10 -22 -6 -30 4 -13 37 -15 215 -15 184 0 210 2
215 16 15 39 -8 44 -214 44 -163 0 -200 -3 -210 -15z"/>
<path d="M1951 1456 c-6 -7 -9 -21 -5 -30 6 -15 45 -16 433 -14 l426 3 0 25 0
25 -421 3 c-349 2 -423 0 -433 -12z"/>
<path d="M3004 1455 c-4 -8 -4 -22 0 -30 5 -13 66 -15 493 -13 l488 3 0 25 0
25 -488 3 c-427 2 -488 0 -493 -13z"/>
<path d="M4184 1455 c-4 -8 -4 -22 0 -30 5 -13 62 -15 430 -15 382 0 424 2
430 16 16 43 5 44 -436 44 -363 0 -419 -2 -424 -15z"/>
<path d="M5241 1456 c-6 -7 -9 -21 -5 -30 5 -14 29 -16 186 -16 l179 0 -3 28
-3 27 -171 3 c-137 2 -173 0 -183 -12z"/>
<path d="M5674 1455 c-4 -8 -4 -22 0 -30 5 -13 32 -15 183 -13 l178 3 0 25 0
25 -178 3 c-151 2 -178 0 -183 -13z"/>
<path d="M6354 1455 c-4 -8 -4 -22 0 -30 5 -13 59 -15 433 -13 l428 3 0 25 0
25 -428 3 c-374 2 -428 0 -433 -13z"/>
<path d="M772 1313 l3 -28 481 -3 c508 -2 515 -2 498 42 -6 14 -53 16 -496 16
l-489 0 3 -27z"/>
<path d="M1884 1325 c-4 -8 -1 -22 6 -30 10 -12 43 -15 170 -15 87 0 165 3
174 6 9 3 16 17 16 30 l0 24 -180 0 c-152 0 -182 -2 -186 -15z"/>
<path d="M2504 1325 c-4 -8 -1 -22 6 -30 11 -13 41 -15 184 -13 l171 3 3 28 3
27 -181 0 c-152 0 -182 -2 -186 -15z"/>
<path d="M3317 1334 c-13 -13 -7 -42 9 -48 24 -9 327 -7 342 3 8 5 12 17 10
27 -3 18 -16 19 -179 22 -96 1 -178 -1 -182 -4z"/>
<path d="M4120 1316 c0 -13 7 -27 16 -30 9 -3 87 -6 174 -6 127 0 160 3 170
15 7 8 10 22 6 30 -4 13 -34 15 -186 15 l-180 0 0 -24z"/>
<path d="M4740 1316 c0 -13 7 -27 16 -30 9 -3 87 -6 174 -6 127 0 160 3 170
15 7 8 10 22 6 30 -4 13 -34 15 -186 15 l-180 0 0 -24z"/>
<path d="M5236 1324 c-16 -41 3 -44 299 -44 156 0 290 3 299 6 9 3 16 17 16
30 l0 24 -304 0 c-271 0 -305 -2 -310 -16z"/>
<path d="M6297 1334 c-13 -13 -7 -42 9 -48 24 -9 327 -7 342 3 8 5 12 17 10
27 -3 18 -16 19 -179 22 -96 1 -178 -1 -182 -4z"/>
<path d="M6917 1334 c-13 -13 -7 -42 9 -48 24 -9 327 -7 342 3 8 5 12 17 10
27 -3 18 -16 19 -179 22 -96 1 -178 -1 -182 -4z"/>
<path d="M770 1190 l0 -31 118 3 117 3 0 25 0 25 -117 3 -118 3 0 -31z"/>
<path d="M1077 1208 c-2 -7 -2 -21 1 -30 4 -16 21 -18 182 -18 149 0 179 2
184 15 3 8 3 22 0 30 -5 13 -35 15 -184 15 -134 0 -179 -3 -183 -12z"/>
<path d="M1514 1205 c-15 -39 1 -45 120 -45 118 0 135 6 120 45 -9 22 -232 22
-240 0z"/>
<path d="M1884 1205 c-3 -8 -3 -22 0 -30 5 -13 25 -15 123 -13 l118 3 0 25 0
25 -118 3 c-98 2 -118 0 -123 -13z"/>
<path d="M2634 1205 c-3 -8 -3 -22 0 -30 5 -13 25 -15 118 -13 l113 3 0 25 0
25 -113 3 c-93 2 -113 0 -118 -13z"/>
<path d="M3314 1205 c-4 -8 -4 -22 0 -30 5 -13 32 -15 183 -13 l178 3 0 25 0
25 -178 3 c-151 2 -178 0 -183 -13z"/>
<path d="M4124 1205 c-3 -8 -3 -22 0 -30 5 -13 25 -15 118 -13 l113 3 0 25 0
25 -113 3 c-93 2 -113 0 -118 -13z"/>
<path d="M4864 1205 c-3 -8 -3 -22 0 -30 5 -13 25 -15 123 -13 l118 3 0 25 0
25 -118 3 c-98 2 -118 0 -123 -13z"/>
<path d="M5238 1208 c-3 -7 -3 -21 0 -31 4 -16 22 -17 246 -15 l241 3 0 25 0
25 -242 3 c-188 2 -242 0 -245 -10z"/>
<path d="M6294 1205 c-15 -39 1 -45 120 -45 118 0 135 6 120 45 -9 22 -232 22
-240 0z"/>
<path d="M7037 1205 c-4 -8 -4 -22 0 -30 4 -13 25 -15 122 -13 l116 3 0 25 0
25 -116 3 c-97 2 -118 0 -122 -13z"/>
<path d="M770 1065 l0 -26 118 3 c113 3 117 4 120 26 3 22 2 22 -117 22 l-121
0 0 -25z"/>
<path d="M1140 1065 l0 -25 120 0 120 0 0 25 0 25 -120 0 -120 0 0 -25z"/>
<path d="M1512 1068 c3 -22 7 -23 119 -26 100 -2 118 0 123 14 3 9 4 20 0 25
-3 5 -59 9 -125 9 -119 0 -120 0 -117 -22z"/>
<path d="M1883 1075 c-11 -30 12 -36 128 -33 106 3 114 4 114 23 0 19 -8 20
-118 23 -100 2 -118 0 -124 -13z"/>
<path d="M2630 1065 l0 -25 120 0 120 0 0 25 0 25 -120 0 -120 0 0 -25z"/>
<path d="M3312 1068 c3 -23 4 -23 183 -23 179 0 180 0 183 23 l3 22 -186 0
-186 0 3 -22z"/>
<path d="M4120 1065 l0 -25 120 0 120 0 0 25 0 25 -120 0 -120 0 0 -25z"/>
<path d="M4863 1075 c-11 -30 12 -36 128 -33 106 3 114 4 114 23 0 19 -8 20
-118 23 -100 2 -118 0 -124 -13z"/>
<path d="M5238 1078 c-14 -37 -3 -38 308 -38 l304 0 0 25 0 25 -304 0 c-234 0
-305 -3 -308 -12z"/>
<path d="M6292 1068 c3 -22 7 -23 117 -26 116 -3 136 3 124 35 -4 10 -34 13
-125 13 -118 0 -119 0 -116 -22z"/>
<path d="M7037 1077 c-12 -32 8 -38 124 -35 110 3 114 4 117 26 3 22 2 22
-116 22 -91 0 -121 -3 -125 -13z"/>
<path d="M772 943 l3 -28 115 0 115 0 0 25 0 25 -118 3 -118 3 3 -28z"/>
<path d="M1514 955 c-15 -39 1 -45 114 -45 114 0 140 9 126 44 -9 23 -232 24
-240 1z"/>
<path d="M1884 955 c-4 -8 -4 -22 0 -30 5 -13 32 -15 183 -13 l178 3 0 25 0
25 -178 3 c-151 2 -178 0 -183 -13z"/>
<path d="M2504 955 c-4 -8 -1 -22 6 -30 11 -13 41 -15 184 -13 l171 3 0 25 0
25 -178 3 c-152 2 -178 0 -183 -13z"/>
<path d="M3314 955 c-4 -8 -4 -22 0 -30 5 -13 32 -15 183 -13 l178 3 0 25 0
25 -178 3 c-151 2 -178 0 -183 -13z"/>
<path d="M4122 943 l3 -28 171 -3 c143 -2 173 0 184 13 7 8 10 22 6 30 -4 13
-34 15 -186 15 l-181 0 3 -27z"/>
<path d="M4744 955 c-4 -8 -4 -22 0 -30 4 -13 34 -15 180 -15 166 0 175 1 181
20 3 11 3 24 0 30 -4 6 -74 10 -181 10 -146 0 -176 -2 -180 -15z"/>
<path d="M5237 951 c-2 -11 0 -24 6 -30 8 -8 123 -11 363 -11 299 0 353 2 364
15 7 8 10 22 6 30 -5 13 -54 15 -370 15 -350 0 -364 -1 -369 -19z"/>
<path d="M6294 955 c-4 -8 -4 -22 0 -30 5 -13 32 -15 183 -13 l178 3 0 25 0
25 -178 3 c-151 2 -178 0 -183 -13z"/>
<path d="M6914 955 c-4 -8 -4 -22 0 -30 5 -13 32 -15 183 -13 l178 3 0 25 0
25 -178 3 c-151 2 -178 0 -183 -13z"/>
<path d="M777 843 c-4 -3 -7 -17 -7 -30 l0 -24 117 3 c106 3 118 5 121 22 2
10 -2 22 -10 27 -15 10 -212 12 -221 2z"/>
<path d="M1522 841 c-8 -5 -12 -17 -10 -27 3 -17 15 -19 119 -22 101 -2 117 0
123 14 13 35 -12 44 -118 44 -55 0 -107 -4 -114 -9z"/>
<path d="M1951 832 c-22 -42 -14 -42 430 -40 406 3 424 4 427 22 2 10 -2 22
-10 27 -7 5 -198 9 -425 9 -387 0 -413 -1 -422 -18z"/>
<path d="M3322 841 c-8 -5 -12 -17 -10 -27 3 -18 15 -19 183 -19 168 0 180 1
183 19 2 10 -2 22 -10 27 -7 5 -85 9 -173 9 -88 0 -166 -4 -173 -9z"/>
<path d="M4192 841 c-8 -5 -12 -17 -10 -27 3 -18 21 -19 430 -22 387 -2 426
-1 432 14 16 43 5 44 -428 44 -226 0 -417 -4 -424 -9z"/>
<path d="M5247 844 c-4 -4 -7 -18 -7 -31 l0 -23 181 0 180 0 -3 28 -3 27 -171
3 c-93 1 -173 -1 -177 -4z"/>
<path d="M5742 841 c-8 -5 -12 -17 -10 -27 3 -18 15 -19 183 -19 168 0 180 1
183 19 2 10 -2 22 -10 27 -7 5 -85 9 -173 9 -88 0 -166 -4 -173 -9z"/>
<path d="M6360 835 c-7 -8 -10 -22 -6 -30 5 -13 58 -15 433 -13 410 3 428 4
431 22 2 10 -2 22 -10 27 -7 5 -198 9 -424 9 -352 0 -413 -2 -424 -15z"/>
<path d="M772 693 l3 -28 95 -3 c119 -4 142 1 138 31 -3 21 -8 22 -121 25
l-118 3 3 -28z"/>
<path d="M1517 713 c-13 -12 -7 -41 9 -47 9 -3 60 -6 114 -6 102 0 127 10 114
44 -5 13 -24 16 -118 16 -62 0 -116 -3 -119 -7z"/>
<path d="M2137 713 c-15 -15 -6 -43 16 -48 12 -3 121 -4 242 -3 l220 3 3 28 3
27 -239 0 c-131 0 -242 -3 -245 -7z"/>
<path d="M3317 714 c-13 -13 -7 -42 9 -48 24 -9 327 -7 342 3 8 5 12 17 10 27
-3 18 -16 19 -179 22 -96 1 -178 -1 -182 -4z"/>
<path d="M4366 704 c-15 -40 6 -44 243 -44 124 0 232 4 239 9 8 5 12 17 10 27
-3 18 -17 19 -244 22 -217 2 -242 1 -248 -14z"/>
<path d="M5242 693 l3 -28 175 0 175 0 3 28 3 27 -181 0 -181 0 3 -27z"/>
<path d="M5856 704 c-15 -38 9 -44 184 -44 175 0 199 6 184 44 -5 14 -29 16
-184 16 -155 0 -179 -2 -184 -16z"/>
<path d="M6540 696 c0 -13 7 -27 16 -30 24 -9 447 -7 462 3 8 5 12 17 10 27
-3 18 -18 19 -246 22 l-242 2 0 -24z"/>
</g>
</svg>
